<?xml version="1.0" encoding="UTF-8" standalone="no"?>
<svg
   xmlns:dc="http://purl.org/dc/elements/1.1/"
   xmlns:cc="http://creativecommons.org/ns#"
   xmlns:rdf="http://www.w3.org/1999/02/22-rdf-syntax-ns#"
   xmlns:svg="http://www.w3.org/2000/svg"
   xmlns="http://www.w3.org/2000/svg"
   viewBox="0 0 324.78668 351.38666"
   height="351.38666"
   width="324.78668"
   xml:space="preserve"
   id="svg2"
   version="1.1"><metadata
     id="metadata8"><rdf:RDF><cc:Work
         rdf:about=""><dc:format>image/svg+xml</dc:format><dc:type
           rdf:resource="http://purl.org/dc/dcmitype/StillImage" /></cc:Work></rdf:RDF></metadata><defs
     id="defs6" /><g
     transform="matrix(1.3333333,0,0,-1.3333333,0,351.38667)"
     id="g10"><g
       transform="scale(0.1)"
       id="g12"><path
         id="path14"
         style="fill:#88191e;fill-opacity:1;fill-rule:nonzero;stroke:none"
         d="m 860.836,83.7695 h 43.613 L 882.953,183.73 h -0.625 z m -5.91,138.5895 h 55.441 L 969.215,0 h -46.711 l -10.281,47.0117 h -59.16 L 842.777,0 H 796.07 l 58.856,222.359" /><path
         id="path16"
         style="fill:#88191e;fill-opacity:1;fill-rule:nonzero;stroke:none"
         d="m 991.031,0 v 222.359 h 44.849 V 36.7422 h 79.42 V 0 H 991.031" /><path
         id="path18"
         style="fill:#88191e;fill-opacity:1;fill-rule:nonzero;stroke:none"
         d="m 1186.3,121.762 h 19.95 c 17.74,0 29.89,10.597 29.89,33.34 0,21.789 -8.71,34.257 -31.14,34.257 h -18.7 z m -44.84,100.597 h 78.47 c 45.49,0 61.06,-33.32 61.06,-66.66 0,-46.07 -28.34,-66.949 -70.71,-66.949 H 1186.3 V 0 h -44.84 v 222.359" /><path
         id="path20"
         style="fill:#88191e;fill-opacity:1;fill-rule:nonzero;stroke:none"
         d="m 1303.12,222.359 h 44.84 V 137.34 h 52.32 v 85.019 h 44.85 V 0 h -44.85 v 98.7109 h -52.32 V 0 h -44.84 v 222.359" /><path
         id="path22"
         style="fill:#88191e;fill-opacity:1;fill-rule:nonzero;stroke:none"
         d="m 1537.94,83.7695 h 43.61 l -21.5,99.9605 h -0.61 z m -5.92,138.5895 h 55.45 L 1646.32,0 h -46.7 l -10.29,47.0117 h -59.16 L 1519.89,0 h -46.72 l 58.85,222.359" /><path
         id="path24"
         style="fill:#ffffff;fill-opacity:1;fill-rule:nonzero;stroke:none"
         d="m 2426.13,1405.19 c -12.03,36.29 -25.93,70.29 -44.94,104.19 -46.95,83.73 -96.25,163.07 -148.38,238.95 -10.11,14.76 -24.88,30.88 -32.85,45.31 -7.83,14.19 -10.68,34.41 -12.46,53.22 -1.91,20.39 0.53,43.32 -3.38,63.41 -4.65,23.93 -24.49,40.4 -38.49,58.9 -24.5,32.34 -48.42,68.13 -70.75,102.52 -3.86,13.37 0.94,59.33 0.73,71.44 -0.69,38.3 -17.95,72.08 -32.84,89.26 -12.79,14.77 -71.6,86.65 -133.39,110.54 -75.86,41.4 -201.68,98.33 -420.79,126.67 -78.24,17.03 -166.66,28.1 -262.52,26.38 -60.07,0.81 -117.09,-3.49 -170.58,-11 -249.142,-25.68 -379.084,-89.03 -461.31,-129.86 -44.805,-20.52 -132.305,-86.36 -146.367,-110.74 -14.942,-25.92 -32.168,-50.43 -32.852,-88.34 -0.215,-12.13 4.121,-25.4 2.266,-38.5 -1.075,-7.7 -14.688,-15.2 -21.524,-21.52 -56.777,-52.41 -91.953,-130.28 -82.656,-236.7 C 234.629,1757.75 119.668,1654.8 56.6211,1535.42 37.5,1499.2 9.66797,1448.32 0,1407.46 v -26.05 c 8.00781,-69.54 75.6836,-92.72 123.457,-132.51 35.273,-29.41 96.133,-62.32 119.375,-103.06 6.934,-12.15 16.211,-35.77 23.77,-40.78 15.39,-10.1 45.918,-3.36 63.437,-6.79 10.371,-2.04 13.984,-11.58 26.055,-19.25 9.531,-6.09 22.402,-11.62 31.699,-14.72 8.887,-3 70.918,-20.56 74.746,-4.55 2.266,9.5 -6.309,9.31 -13.594,14.74 -22.382,16.69 -30.351,48.62 -43.007,70.22 28.945,19.02 74.414,37.3 113.203,49.82 13.808,4.46 30.879,12.99 41.914,12.46 15.84,-0.77 34.902,-20.55 43.047,-29.46 -18.164,-44.01 -25,-115.5 -13.594,-172.12 -3.067,-6.5 -10.313,-10.59 -15.86,-15.859 -5.976,-5.672 -11.699,-11.762 -16.972,-18.11 -11.074,-13.32 -16.524,-29.921 -28.301,-41.91 -8.555,12.258 -13.379,27.27 -19.277,45.289 -3.535,10.86 -7.657,46.02 -18.125,47.57 -9.375,1.4 -14.746,-13.43 -18.106,-21.51 -12.129,-29.189 -20.351,-65.021 -16.972,-101.939 -34.258,6.188 -39.942,-23.82 -43.047,-49.839 -7.11,-58.954 -3.946,-125.473 19.238,-161.922 15.312,-24.09 41.934,-44.86 70.137,-59.059 10.898,-5.48 81.66,-17.723 118.632,-40.851 C 790.293,481.969 977.93,435.082 1156.04,423.988 v -1.109 c 268.69,-13.457 513.41,53.902 634.19,124.851 54.26,31.879 121.84,63.461 137.07,78.692 19.38,19.359 38.36,47.379 54.2,67.488 20.34,25.789 63.36,44.621 58.77,91.789 -2.09,21.531 -14.12,40.11 -22.65,58.891 18.94,31.121 10.82,91.422 -1.12,124.57 -3.77,10.57 -8.2,31.18 -19.25,30.602 -10.86,-0.602 -17.97,-40.563 -21.53,-50.992 -7.2,-21.231 -13.06,-35.551 -21.48,-52.09 -66.76,48.511 -106.78,129.45 -101.94,245.78 24.67,11.07 61.2,18.11 99.67,18.11 36.94,0 76.84,-1.59 96.25,-21.52 -11.27,-26.71 -25.27,-50.18 -46.44,-69.09 -6.43,-5.76 -20.49,-11.68 -17.01,-20.37 4.06,-9.92 25.7,-4.12 37.42,-2.29 42.13,6.67 76.77,17.64 103.04,36.26 66.02,-13.76 89.07,32.73 120.04,61.15 28.52,26.17 58.87,50.47 83.81,71.36 28.05,23.44 58.99,47.23 82.68,72.48 28.47,30.36 29.76,70.34 14.37,116.64" /><path
         id="path26"
         style="fill:#88191e;fill-opacity:1;fill-rule:evenodd;stroke:none"
         d="m 534.043,1401.08 c -47.441,-28.65 -101.758,-48.81 -151.777,-78.15 -35.743,-20.95 -69.532,-42.87 -100.801,-71.33 -1.133,-1.07 -29.18,-28.35 -35.078,-7.93 -3.106,10.7 14.14,24.61 22.636,31.7 48.809,40.67 107.442,75.36 171.016,100.8 29.063,11.62 60.723,25.08 94.004,24.91" /><path
         id="path28"
         style="fill:#88191e;fill-opacity:1;fill-rule:evenodd;stroke:none"
         d="m 536.289,1363.7 c -7.93,-10.11 -20.801,-14.9 -31.699,-20.38 -68.32,-34.35 -138.906,-68.68 -191.387,-121.17 -8.105,-8.1 -19.609,-20.72 -33.984,-13.58 -5.313,13.58 7.832,23.59 15.859,30.57 45.43,39.65 95.703,71.45 156.289,98.54 27.344,12.21 53.496,23.27 84.922,26.02" /><path
         id="path30"
         style="fill:#88191e;fill-opacity:1;fill-rule:evenodd;stroke:none"
         d="m 523.848,1316.15 c 9.765,-0.82 0.254,-5.64 -5.664,-9.07 -36.602,-21.14 -73.829,-36.57 -108.731,-57.76 -28.945,-17.56 -56.211,-37.46 -81.523,-62.29 -3.731,-3.61 -22.754,-21.56 -29.453,-9.04 -7.247,13.5 33.203,40.89 41.894,47.54 35.215,26.97 70.137,48.59 113.262,67.95 20.312,9.14 44.453,21.09 67.949,22.67 0.723,0.04 1.523,0.06 2.266,0" /><path
         id="path32"
         style="fill:#88191e;fill-opacity:1;fill-rule:evenodd;stroke:none"
         d="m 225.41,1473.28 c -16.152,-12.58 -71.328,-24.24 -101.25,-19.25 -1.094,5.09 2.305,10.33 4.531,14.73 38.301,76.23 115.762,155.22 165.801,220.83 -0.019,0.39 0.039,0.76 0,1.12 0.899,-9.51 -14.844,-35.12 -20.39,-48.69 -20.997,-51.55 -42.364,-108.17 -48.692,-168.74" /><path
         id="path34"
         style="fill:#ffffff;fill-opacity:1;fill-rule:nonzero;stroke:none"
         d="m 639.199,617.43 c 0.41,0.031 1.004,-0.059 1.477,-0.059 -0.063,0.027 -0.129,0.059 -0.188,0.09 -0.449,-0.031 -0.859,0.008 -1.289,-0.031" /><path
         id="path36"
         style="fill:#ffffff;fill-opacity:1;fill-rule:nonzero;stroke:none"
         d="m 755.859,647.43 c 0.411,0.031 1.004,-0.059 1.477,-0.059 -0.063,0.027 -0.129,0.059 -0.188,0.09 -0.449,-0.031 -0.859,0.008 -1.289,-0.031" /><path
         id="path38"
         style="fill:#ffffff;fill-opacity:1;fill-rule:nonzero;stroke:none"
         d="m 822.539,677.43 c 0.399,0.031 0.996,-0.059 1.453,-0.059 -0.066,0.027 -0.125,0.059 -0.183,0.09 -0.43,-0.031 -0.86,0.008 -1.27,-0.031" /><path
         id="path40"
         style="fill:#88191e;fill-opacity:1;fill-rule:evenodd;stroke:none"
         d="m 2223.77,1646.42 c 12.52,-15.87 31.29,-31.31 29.43,-57.76 -5.39,-6.07 -16.13,-4.86 -22.67,-3.42 -27.83,6.16 -50.26,32.17 -65.65,50.98 14.75,-3.57 55.32,-14.32 58.89,10.2" /><path
         id="path42"
         style="fill:#88191e;fill-opacity:1;fill-rule:evenodd;stroke:none"
         d="m 1793.4,1324.77 c 13.36,8.45 30.43,4.18 44.16,2.28 98.16,-13.77 188.3,-51.13 274.08,-74.77 -0.78,11.22 -16.41,16.35 -26.05,22.68 -49.67,32.65 -105.45,62.64 -166.49,86.06 -24.9,9.57 -51.13,14.02 -76.99,23.79 8.79,13.41 29,7.51 41.89,5.65 71.25,-10.34 132.02,-42.14 183.48,-73.61 10.66,-6.52 20.74,-13.45 30.55,-20.4 9.72,-6.84 18.45,-15.91 29.45,-19.24 1.62,12.84 -12.83,19.55 -20.37,26.05 -50.49,43.61 -101.41,90.69 -167.6,120.06 -10.02,4.42 -21.8,7.89 -28.32,16.97 0.55,4.02 6.31,4.3 15.84,3.4 28.77,-2.73 59.49,-22.5 82.7,-36.23 60.58,-35.93 111.68,-82.27 161.93,-132.5 7.93,-7.93 27.6,-23.93 28.3,-30.59 1.43,-13.1 -27.21,-34.45 -40.76,-35.11 -13.15,-0.66 -31.9,9.22 -46.45,14.72 -87.09,33 -172.95,69.05 -272.93,87.19 -15.21,2.77 -34.04,1.81 -46.42,13.6" /><path
         id="path44"
         style="fill:#88191e;fill-opacity:1;fill-rule:evenodd;stroke:none"
         d="m 1907.79,1832.14 c -23.61,-11.34 -52.22,-19.25 -83.81,-16.97 -54.41,3.88 -85.37,42.58 -103.06,81.52 8.69,-2.62 14.45,-13.12 22.65,-18.1 15.16,-9.25 40.49,-14.74 65.69,-14.74 98.79,0 155.19,61.88 250.27,55.49 23.46,-1.56 46.49,-11.32 54.36,-31.7 7.52,-19.39 7.07,-41.89 11.34,-61.17 13.6,-61.06 40.96,-100.19 73.62,-143.8 -27.25,-9.37 -40.45,11.73 -57.74,22.63 -18.63,11.72 -38.3,16.01 -61.17,22.66 -10.29,23.31 -22.36,44.82 -40.78,60.02 -23.52,-14.77 -56.54,-34.94 -97.38,-40.78 -12.99,-1.86 -33.28,-2.95 -35.12,7.94 -2.97,17.31 33.48,27.21 43.03,33.97 49.33,-5.11 69.65,37.28 79.29,79.28 -3.45,4.49 -12.24,3.61 -17.01,6.78 -13.67,-27.83 -26.01,-57.02 -53.2,-71.33 -15.64,18.29 11.48,54.06 -5.68,74.75 -9.61,-1.34 -17.17,-4.75 -24.91,-7.96 -0.8,-19.45 -3.75,-45.34 3.36,-60.02 -7.44,3.14 -15.35,15.58 -23.75,21.53" /><path
         id="path46"
         style="fill:#88191e;fill-opacity:1;fill-rule:evenodd;stroke:none"
         d="m 2213.57,1563.74 c 16.1,-4.81 52.19,-38.02 72.48,-18.13 9.34,-6.99 20.98,-29.05 10.2,-41.9 -43.26,4.31 -58.46,36.68 -82.68,60.03" /><path
         id="path48"
         style="fill:#88191e;fill-opacity:1;fill-rule:evenodd;stroke:none"
         d="m 2261.13,1488.99 c 17.91,-6.36 36.27,-27.76 64.55,-23.78 -11.32,-36.05 -51.77,13.04 -64.55,23.78" /><path
         id="path50"
         style="fill:#231f20;fill-opacity:1;fill-rule:nonzero;stroke:none"
         d="m 1924.79,2162.84 c 3.32,-10.37 7.65,-20.79 13.57,-29.45 -5.92,8.66 -9.36,19.4 -13.57,29.45" /><path
         id="path52"
         style="fill:#231f20;fill-opacity:1;fill-rule:nonzero;stroke:none"
         d="m 1887.81,1265.69 c -1.35,0.3 -2.71,0.59 -4.08,0.88 1.37,-0.29 2.75,-0.58 4.08,-0.88" /><path
         id="path54"
         style="fill:#231f20;fill-opacity:1;fill-rule:nonzero;stroke:none"
         d="m 1903.52,1261.79 c -1.47,0.41 -2.93,0.82 -4.48,1.22 1.55,-0.4 3.01,-0.81 4.48,-1.22" /><path
         id="path56"
         style="fill:#231f20;fill-opacity:1;fill-rule:nonzero;stroke:none"
         d="m 1895.8,1263.82 c -1.37,0.34 -2.77,0.68 -4.2,1.01 1.43,-0.33 2.83,-0.67 4.2,-1.01" /><path
         id="path58"
         style="fill:#231f20;fill-opacity:1;fill-rule:nonzero;stroke:none"
         d="m 1912.3,1259.1 c -1.99,0.67 -4.12,1.34 -6.32,1.99 2.2,-0.65 4.33,-1.32 6.32,-1.99" /><path
         id="path60"
         style="fill:#231f20;fill-opacity:1;fill-rule:nonzero;stroke:none"
         d="m 1879.45,1267.44 c -1.25,0.25 -2.54,0.49 -3.81,0.72 1.27,-0.23 2.56,-0.47 3.81,-0.72" /><path
         id="path62"
         style="fill:#231f20;fill-opacity:1;fill-rule:nonzero;stroke:none"
         d="m 1845.78,1272.84 c -0.43,0.05 -0.84,0.11 -1.25,0.16 0.41,-0.05 0.82,-0.11 1.25,-0.16" /><path
         id="path64"
         style="fill:#231f20;fill-opacity:1;fill-rule:nonzero;stroke:none"
         d="m 1827.17,1274.92 c -0.28,0.03 -0.55,0.05 -0.84,0.08 0.29,-0.03 0.56,-0.05 0.84,-0.08" /><path
         id="path66"
         style="fill:#231f20;fill-opacity:1;fill-rule:nonzero;stroke:none"
         d="m 1870.66,1269.09 c -0.64,0.11 -1.28,0.21 -1.91,0.32 0.63,-0.11 1.27,-0.21 1.91,-0.32" /><path
         id="path68"
         style="fill:#231f20;fill-opacity:1;fill-rule:nonzero;stroke:none"
         d="m 1836.76,1273.92 c -0.49,0.05 -0.98,0.11 -1.49,0.16 0.49,-0.05 1,-0.11 1.49,-0.16" /><path
         id="path70"
         style="fill:#231f20;fill-opacity:1;fill-rule:nonzero;stroke:none"
         d="m 1713.01,1297.6 c 0.15,-0.07 0.27,-0.23 0.43,-0.31 v 0 c -0.16,0.09 -0.28,0.24 -0.43,0.31" /><path
         id="path72"
         style="fill:#ffffff;fill-opacity:1;fill-rule:nonzero;stroke:none"
         d="m 1713.44,1297.29 v 0 l 0.02,-0.01 c -0.02,0 -0.02,0.01 -0.02,0.01" /><path
         id="path74"
         style="fill:#ffffff;fill-opacity:1;fill-rule:nonzero;stroke:none"
         d="m 1809.06,617.371 c 0.45,0 1.04,0.09 1.45,0.059 -0.41,0.039 -0.84,0 -1.27,0.031 -0.06,-0.031 -0.12,-0.063 -0.18,-0.09" /><path
         id="path76"
         style="fill:#ffffff;fill-opacity:1;fill-rule:nonzero;stroke:none"
         d="m 1692.58,647.461 c -0.06,-0.031 -0.12,-0.063 -0.18,-0.09 0.45,0 1.04,0.09 1.45,0.059 -0.41,0.039 -0.84,0 -1.27,0.031" /><path
         id="path78"
         style="fill:#ffffff;fill-opacity:1;fill-rule:nonzero;stroke:none"
         d="m 1625.9,677.461 c -0.06,-0.031 -0.12,-0.063 -0.18,-0.09 0.45,0 1.06,0.09 1.47,0.059 -0.43,0.039 -0.84,0 -1.29,0.031" /><path
         id="path80"
         style="fill:#231f20;fill-opacity:1;fill-rule:nonzero;stroke:none"
         d="m 569.141,1259.77 c 1.347,0.29 2.714,0.58 4.101,0.87 -1.387,-0.29 -2.754,-0.58 -4.101,-0.87" /><path
         id="path82"
         style="fill:#231f20;fill-opacity:1;fill-rule:nonzero;stroke:none"
         d="m 553.457,1255.84 c 1.445,0.41 2.93,0.82 4.473,1.22 -1.543,-0.4 -3.028,-0.81 -4.473,-1.22" /><path
         id="path84"
         style="fill:#231f20;fill-opacity:1;fill-rule:nonzero;stroke:none"
         d="m 561.152,1257.88 c 1.387,0.34 2.774,0.68 4.219,1.02 -1.445,-0.34 -2.832,-0.68 -4.219,-1.02" /><path
         id="path86"
         style="fill:#231f20;fill-opacity:1;fill-rule:nonzero;stroke:none"
         d="m 544.668,1253.14 c 1.992,0.68 4.121,1.34 6.328,2 -2.207,-0.66 -4.336,-1.32 -6.328,-2" /><path
         id="path88"
         style="fill:#231f20;fill-opacity:1;fill-rule:nonzero;stroke:none"
         d="m 577.52,1261.52 c 1.25,0.25 2.519,0.49 3.808,0.73 -1.289,-0.24 -2.558,-0.48 -3.808,-0.73" /><path
         id="path90"
         style="fill:#231f20;fill-opacity:1;fill-rule:nonzero;stroke:none"
         d="m 611.172,1266.94 c 0.43,0.05 0.84,0.11 1.269,0.16 -0.429,-0.05 -0.839,-0.11 -1.269,-0.16" /><path
         id="path92"
         style="fill:#231f20;fill-opacity:1;fill-rule:nonzero;stroke:none"
         d="m 629.785,1269.03 c 0.293,0.03 0.567,0.05 0.84,0.08 -0.273,-0.03 -0.547,-0.05 -0.84,-0.08" /><path
         id="path94"
         style="fill:#231f20;fill-opacity:1;fill-rule:nonzero;stroke:none"
         d="m 586.309,1263.17 c 0.625,0.11 1.269,0.22 1.914,0.34 -0.645,-0.12 -1.289,-0.23 -1.914,-0.34" /><path
         id="path96"
         style="fill:#231f20;fill-opacity:1;fill-rule:nonzero;stroke:none"
         d="m 620.195,1268.03 c 0.508,0.06 0.996,0.11 1.485,0.16 -0.489,-0.05 -0.977,-0.1 -1.485,-0.16" /><path
         id="path98"
         style="fill:#231f20;fill-opacity:1;fill-rule:nonzero;stroke:none"
         d="m 743.965,1291.82 c -0.156,-0.07 -0.293,-0.23 -0.449,-0.31 v 0 c 0.156,0.09 0.293,0.24 0.449,0.31" /><path
         id="path100"
         style="fill:#ffffff;fill-opacity:1;fill-rule:nonzero;stroke:none"
         d="m 743.516,1291.51 v 0 -0.01 z" /><path
         id="path102"
         style="fill:#ffffff;fill-opacity:1;fill-rule:nonzero;stroke:none"
         d="m 726.738,1271.78 c 0.176,0.12 0.313,0.3 0.489,0.43 -0.176,-0.13 -0.313,-0.31 -0.489,-0.43" /><path
         id="path104"
         style="fill:#88191e;fill-opacity:1;fill-rule:nonzero;stroke:none"
         d="m 1639.59,1829.15 c 26.64,-42.02 60.1,-77.31 112.11,-93.99 -64.02,-29.14 -123.89,14.27 -112.11,93.99 z m 759.71,-479.47 c -6.94,-0.97 -19.65,14.87 -28.3,20.39 -7.27,-2.19 -11.62,-13.27 -17.02,-13.59 -31.03,22.8 -73.51,52.6 -125.68,46.44 -11.54,-1.37 -30.29,-16.14 -41.91,-23.78 -12.15,-7.97 -23.69,-16.46 -35.1,-23.79 57.01,-5.39 93.79,-28.62 110.98,-78.14 4.51,-12.99 13.92,-37.91 10.19,-52.08 -1.78,-6.74 -17.44,-15.98 -24.92,-22.65 -10.22,-9.16 -17.29,-16.67 -23.77,-22.68 -18.73,-17.26 -31.04,-35.8 -46.45,-47.55 -31.09,-23.75 -74.66,1.11 -101.93,18.12 -42.91,26.76 -70.45,61.68 -124.59,74.76 -88.42,21.34 -198.79,14.8 -270.1,-23.41 -30.41,-35.46 -51.15,-87.76 -62.4,-147.02 -3.38,-17.86 -10.64,-49.92 -8.55,-68.239 0.46,-4.152 2.2,-8.441 4.55,-12.723 13.73,-23 43.55,-40.597 68.14,-55.558 52.85,-32.129 111.8,-59.34 176.64,-79.25 39.44,-12.11 86.04,-22.7 132.5,-15.84 4.65,-13.031 22.85,-36.11 11.31,-54.371 -3.98,-6.399 -30.41,-16.278 -37.32,-21.528 -21.25,-16.011 -36.68,-40.339 -52.13,-65.671 -10.69,-17.551 -28.38,-46.231 -52.09,-23.79 -6.53,6.211 -10.41,18.93 -11.33,27.18 -5.08,46.852 19.37,96.43 30.59,131.36 -15.63,-5.961 -37.56,-12.29 -61.14,-18.11 -16.25,-4 -55.08,-14.64 -64.57,0 -13.92,21.43 15.55,44.262 21.53,57.762 -22.82,-4.332 -57.47,-13.961 -84.97,-13.59 -7.83,0.109 -20.31,1.598 -23.76,6.77 -12,18.007 11.75,40.898 15.85,54.39 -18.18,-6.211 -41.6,-18.39 -66.79,-18.133 -45.59,0.461 -19.87,42.891 -1.31,62.34 -7.34,-1.301 -14.9,-2.328 -22.42,-3.269 -9.18,-2.758 -18.85,-4.961 -28.4,-4.7 -10.04,0.25 -19.84,4.059 -21.5,11.301 -2.41,10.59 8.84,22.11 14.7,31.719 3.38,5.531 6.78,11.371 10.14,17.32 16.05,81.62 -20.67,190.64 90.16,230.98 24.02,9.38 58.1,13.54 76.36,16.32 52.97,13.71 114.26,19.58 177.81,11.73 -1.99,0.67 -4.12,1.34 -6.32,1.99 -0.8,0.24 -1.64,0.46 -2.46,0.7 -1.47,0.41 -2.93,0.82 -4.48,1.22 -1.05,0.27 -2.15,0.54 -3.24,0.81 -1.37,0.34 -2.77,0.68 -4.2,1.01 -1.25,0.3 -2.5,0.58 -3.79,0.86 -1.33,0.3 -2.71,0.59 -4.08,0.88 -1.43,0.29 -2.83,0.59 -4.28,0.87 -1.25,0.25 -2.54,0.49 -3.81,0.72 -1.66,0.32 -3.3,0.63 -4.98,0.93 -0.64,0.11 -1.28,0.21 -1.91,0.32 -7.36,1.26 -15.06,2.42 -22.97,3.43 -0.43,0.05 -0.84,0.11 -1.25,0.16 -2.58,0.32 -5.17,0.63 -7.77,0.92 -0.49,0.05 -1,0.11 -1.49,0.16 -2.69,0.3 -5.39,0.58 -8.1,0.84 -0.28,0.03 -0.55,0.05 -0.84,0.08 -15.02,1.43 -30.33,2.3 -45,2.5 -44.42,-0.64 -91.64,-10.01 -133.83,-26.36 19.57,21.83 43.32,37.27 65.94,46.15 -0.16,0.08 -0.28,0.24 -0.43,0.31 -25.69,1.16 -62.27,-11.03 -123.81,-48.8 1.44,4.86 -2.74,26.39 66.43,55.45 17.67,10.96 58.04,16.09 80.01,21.65 0,0.03 0.02,0.06 0.02,0.08 -48.55,8.68 -107.11,-3.09 -138.57,-22 13.36,33.8 46.74,56.24 84.16,67.88 -25.35,7.04 -60.06,11.3 -87.99,6.93 -2.97,1.88 4.94,6.59 8.28,8.72 24.12,15.53 62.15,30.71 101.14,31.57 -3.36,1.78 -6.72,3.56 -10.08,5.35 -34.9,20.17 -54.83,43.84 -54.9,56 20.84,-15.83 59.18,-45 157.98,-66.19 -4.37,42.91 32.7,54.11 70.18,58.88 -55.8,12.51 -115.29,21.36 -172.11,32.85 -13.44,2.9 -55.94,13.82 -55.66,21.26 109.57,-13.18 293.71,-9.9 358.02,42.18 -90.07,-21.48 -211.73,-32.31 -256.73,-15.65 60.68,18.4 187.57,29.35 246.58,92.66 -79.92,-26.82 -117.42,-25.16 -184.92,-30.16 50,16.67 122.4,56.01 152.05,95.83 -56.53,-20.48 -113.66,-40.37 -186.86,-44.17 36.5,17.51 74.82,33.15 101.93,60.04 -30.87,-3.11 -62.4,-5.56 -94,-7.94 7.23,13.18 16.02,24.77 23.77,37.37 -68.2,28.43 -136.68,58.04 -166.68,164.29 22.37,-22.99 46.57,-35.44 61.07,-28.46 v 0 c 0.1,0.03 0.2,0.04 0.28,0.09 -13.5,63.92 -10.86,159.57 45.33,177.79 -28.55,26.83 -72.93,31.83 -106.05,31.83 33.75,21.25 113.8,2.17 145.66,-9.17 -13.99,25.25 -51.54,57.79 -79.41,69.17 45.62,2.57 106.17,-20.55 132.65,-40.86 -10.25,17.47 -21.33,38.37 -35.1,54.36 -4.16,4.82 -31.3,40.25 -47.55,57.75 33.16,-14.37 97.5,-47.5 122.28,-100.79 6.82,2.24 16.8,1.34 23.79,3.4 -28.57,109.89 -118.48,164.34 -132.32,192.39 23.24,-19.53 128.75,-60 162.91,-166.34 4.21,-10.05 7.65,-20.79 13.57,-29.45 11.97,-17.44 37.23,-20.9 65.7,-20.38 5.42,-12.57 11.28,-25.85 17.94,-38.82 0.74,-1.47 1.54,-2.93 2.31,-4.39 1.23,-2.31 2.47,-4.63 3.77,-6.92 0.28,-0.5 0.57,-1.01 0.87,-1.52 5.57,-9.7 11.7,-19.02 18.63,-27.47 0.01,-0.03 0.03,-0.07 0.04,-0.11 7.51,-9.18 15.89,-17.36 25.52,-23.83 15.02,-43.11 33.83,-68.16 67.37,-92.79 1.35,-45.94 4.61,-110.86 23.22,-142.78 9.86,-16.88 23.85,-32.38 35.12,-48.69 56.17,-81.27 107.69,-166.03 157.42,-255.95 19.49,-35.26 44.73,-73.95 43.03,-120.06 z m -374.87,-284.27 c 15.36,19.03 28.89,39.85 39.63,63.45 17.25,-10.33 33.83,-21.3 56.66,-26.05 -24.72,-19.84 -59.02,-30.07 -96.29,-37.4 z M 1863.61,889.879 c -29.18,8.031 -52.18,22.762 -72.48,43.031 -19.84,19.86 -46.58,51.629 -41.89,94 0.9,8.19 7.34,19.74 5.66,30.6 -2.26,14.54 -21.91,24.19 -32.85,35.11 -11.82,11.81 -31.8,37.32 -15.82,57.75 22.4,28.79 84.53,1.44 96.25,-20.39 16.6,-30.92 6.64,-88.22 12.44,-139.3 5.55,-48.731 26.56,-78.211 48.69,-100.801 z m 135.9,72.48 c 13.75,-27.539 15.57,-81.437 2.27,-110.968 -17.89,-4.789 -40.76,-9.11 -60,-3.399 26.36,30.996 45.37,69.367 57.73,114.367 z M 1809.06,617.371 C 1734.47,582.02 1645.2,526.922 1558.01,500.41 c -5.04,-1.531 -11,-3.91 -16.92,-3.012 -6.64,22.032 5.32,62.274 19.42,73.852 70.02,3.41 135.02,17.91 194.18,32.25 15,3.629 42.5,13.879 54.37,13.871 l 0.18,0.09 c 0.43,-0.031 0.86,0.008 1.27,-0.031 -0.41,0.031 -1,-0.059 -1.45,-0.059 z m -384.63,-89.973 c -4.35,14.442 -0.7,36.633 6.29,53.524 -18.67,-7.813 -37.4,-14.852 -56.05,-20.512 -5.02,-1.531 -10.98,-3.91 -16.92,-3.012 -6.64,22.032 5.32,62.274 19.44,73.852 70,3.41 135.02,17.91 194.16,32.25 15,3.629 44.74,14.551 56.62,14.539 0.06,0.031 -1.8,-0.668 -2.25,-0.668 -43.88,-20.801 -92.89,-48.422 -143.53,-73.051 55.51,5.821 107.63,17.5 155.84,29.18 15,3.629 42.5,13.879 54.37,13.871 l 0.18,0.09 c 0.43,-0.031 0.86,0.008 1.27,-0.031 -0.41,0.031 -1,-0.059 -1.45,-0.059 -74.59,-35.351 -163.86,-90.449 -251.05,-116.961 -5.04,-1.531 -11,-3.91 -16.92,-3.012 z m -332.48,30 c -5.91,-0.898 -11.87,1.481 -16.91,3.012 -18.64,5.66 -37.37,12.699 -56.04,20.512 6.99,-16.891 10.64,-39.082 6.29,-53.524 -5.93,-0.898 -11.89,1.481 -16.91,3.012 -87.196,26.512 -176.478,81.61 -251.044,116.961 -0.473,0 -1.066,0.09 -1.477,0.059 0.43,0.039 0.84,0 1.289,0.031 0.059,-0.031 0.125,-0.063 0.188,-0.09 11.875,0.008 39.352,-10.242 54.363,-13.871 48.184,-11.68 100.332,-23.371 155.828,-29.18 -50.64,24.629 -99.644,52.25 -143.535,73.051 -0.457,0 -1.054,0.09 -1.453,0.059 0.41,0.039 0.84,0 1.27,0.031 0.058,-0.031 0.117,-0.063 0.183,-0.09 11.86,0.02 39.375,-10.242 54.367,-13.871 59.161,-14.34 124.161,-28.84 194.181,-32.25 14.1,-11.578 26.05,-51.82 19.41,-73.852 z m -183.317,-60 c -5.938,-0.898 -11.895,1.481 -16.914,3.012 -87.199,26.512 -176.477,81.61 -251.043,116.961 -0.473,0 -1.067,0.09 -1.477,0.059 0.43,0.039 0.84,0 1.289,0.031 0.059,-0.031 0.125,-0.063 0.188,-0.09 11.875,0.008 39.351,-10.242 54.363,-13.871 59.141,-14.34 124.16,-28.84 194.16,-32.25 14.121,-11.578 26.074,-51.82 19.434,-73.852 z M 522.148,1839.44 c 2.364,18.69 12.5,36.92 32.832,26.07 5.469,-37.57 4.317,-88.78 -37.363,-83.81 -36.719,4.35 -53.75,46.87 -63.418,80.4 3.614,3.92 10.332,4.76 16.953,5.65 10.84,-29.56 22.754,-58.04 47.598,-73.59 8.281,10.36 1.426,29.87 3.398,45.28 z M 606.367,797.02 c -2.871,-7.778 -4.023,-17.77 -2.265,-27.18 -22.364,4.09 -42.305,10.551 -55.489,23.789 0.977,-25.828 4.356,-49.238 9.063,-71.359 -3.516,-1.02 -5.703,4.332 -7.949,6.812 -19.864,21.969 -43.829,48.277 -60.039,74.738 4.101,-46.89 11.972,-89.988 28.339,-124.57 -0.703,-3.531 -3.789,2.68 -4.531,3.391 -33.437,31.871 -49.824,88.879 -48.711,155.148 18.496,-11.207 51.875,-11.359 74.746,-3.398 l 20.391,9.07 c 5.273,0.898 10,-1.16 14.726,-1.129 28.028,0.148 51.524,14.469 62.325,35.098 65.566,-9.989 109.668,18.781 133.593,57.761 21.582,4.278 37.832,13.52 53.243,27.168 12.089,10.711 29.589,29.672 31.718,47.581 2.207,18.55 -7.812,50.69 -9.062,69.08 -5.41,79.74 -38.047,97.18 -72.09,133.07 -175,45 -312.5,-1.68 -416.016,-66.25 -5.957,-3.71 -13.906,-9.64 -16.992,-10.2 -15.351,-2.68 -34.219,8.1 -48.691,5.67 -22.559,46.93 -53.906,85.02 -88.321,120.06 6.622,1.27 10.801,5.02 18.086,5.66 16.329,50.1 52.012,80.84 112.11,87.19 -6.094,40.76 0.937,84.12 14.726,112.13 -14.98,-8.42 -30.371,-26.25 -45.312,-38.52 -91.485,-6.27 -192.656,-35.04 -246.2111,-79.28 -24.9023,25.93 -18.7891,85.82 6.7969,106.47 60.9372,137.87 184.2192,258.27 275.6832,371.45 5.879,7.3 16.153,19.37 16.954,23.79 1.445,7.53 -2.598,19.23 -3.36,28.33 -8.906,103.3 39.824,173.17 107.578,212.89 -1.562,24.52 -2.851,49.24 -5.664,72.48 13.113,23.59 21.699,36.15 28.836,43.62 40.942,60.81 131.789,128.55 200.207,143.68 -57.5,-42.5 -117.91,-99.58 -123.926,-131.55 40.84,26.96 89.512,64.34 133.516,53.22 -35.449,-13.3 -80.52,-55.59 -111.887,-102 3.305,-8.48 5.942,-17.63 8.02,-27.33 28.945,31.1 143.027,109.33 141.152,101.83 -26.367,-23.12 -88.203,-75.89 -99.258,-114.3 5.078,-5.87 15,-6.9 21.524,-11.33 27.265,18.79 80.234,45.63 112.734,50 -51.875,-35 -49.883,-46.42 -68.574,-69.25 3.867,-6.7 9.16,-11.99 15.879,-15.84 44.707,24.58 82.031,-2.33 82.676,-49.85 0.605,-47.11 -42.481,-71.07 -90.645,-72.48 1.817,-16.85 8.731,-28.6 16.484,-39.52 0.403,0.04 0.79,-0.02 1.18,0.02 5.195,-7.61 13.625,-20.37 17.043,-25.67 -20.527,-10.52 -40.273,-20.33 -69.062,-20.38 -49.512,-0.1 -82.442,27.57 -125.723,45.29 -41.621,17.04 -91.816,18.81 -141.563,1.13 -13.339,-17.07 -21.64,-54.77 -11.328,-81.54 -5.879,-10.58 -16.386,-14.3 -23.769,-23.78 -17.285,-22.12 -19.59,-56.55 -38.516,-78.13 -6.387,-7.31 -13.398,-11.35 -20.39,-19.25 76.601,1.54 123.261,33.04 160.8,73.61 50.059,-43.74 117.286,7.7 140.469,43.03 41.856,-36.54 130.567,-25.09 169.863,6.78 -3.457,-3.66 -7.187,-7.2 -11.171,-10.61 11.882,8.2 22.492,16.8 31.027,26.78 -35.141,-60.56 -88.75,-83.88 -142.297,-106.31 7.754,-12.67 16.543,-24.31 23.77,-37.55 -31.602,2.39 -63.145,4.85 -94.004,7.98 27.109,-27.03 65.429,-42.74 101.933,-60.33 -73.222,3.82 -130.332,23.8 -186.875,44.38 29.668,-40 102.051,-79.54 152.051,-96.29 -67.5,5.02 -105,3.35 -184.902,30.29 59.004,-63.6 185.898,-74.61 246.582,-93.09 -45,-16.75 -166.68,-5.86 -256.758,15.73 64.316,-52.33 248.457,-55.63 358.047,-42.39 0.254,-7.47 -42.227,-18.45 -55.664,-21.36 -56.817,-11.55 -116.309,-20.43 -172.129,-33.01 37.5,-4.8 74.57,-16.05 70.195,-59.17 98.809,21.3 137.129,50.6 157.969,66.52 -0.078,-12.23 -20,-36.01 -54.903,-56.27 -3.339,-1.81 -6.718,-3.6 -10.078,-5.38 39.004,-0.86 77.012,-16.12 101.153,-31.72 3.34,-2.14 11.25,-6.88 8.261,-8.76 -27.91,4.39 -62.617,0.11 -87.968,-6.97 37.422,-11.69 70.8,-34.24 84.16,-68.2 -31.485,19 -90.039,30.82 -138.594,22.09 0.02,-0.02 0.02,-0.05 0.039,-0.08 21.973,-5.57 62.324,-10.73 80,-21.74 69.18,-29.2 64.981,-50.83 66.426,-55.73 -61.543,37.96 -98.106,50.21 -123.789,49.04 -0.156,-0.07 -0.293,-0.23 -0.449,-0.31 22.636,-8.92 46.386,-24.44 65.937,-46.36 -42.168,16.42 -89.414,25.83 -133.828,26.48 -14.648,-0.2 -29.961,-1.08 -45,-2.52 -0.273,-0.03 -0.547,-0.05 -0.84,-0.08 -2.715,-0.26 -5.41,-0.53 -8.105,-0.84 -0.489,-0.05 -0.977,-0.1 -1.485,-0.16 -2.597,-0.29 -5.195,-0.6 -7.754,-0.93 -0.429,-0.05 -0.839,-0.11 -1.269,-0.16 -7.91,-1.01 -15.606,-2.17 -22.949,-3.43 -0.645,-0.12 -1.289,-0.23 -1.914,-0.34 -1.7,-0.3 -3.34,-0.61 -4.981,-0.92 -1.289,-0.24 -2.558,-0.48 -3.808,-0.73 -1.446,-0.29 -2.872,-0.58 -4.278,-0.88 -1.387,-0.29 -2.754,-0.58 -4.101,-0.87 -1.27,-0.29 -2.539,-0.58 -3.77,-0.87 -1.445,-0.34 -2.832,-0.68 -4.219,-1.02 -1.093,-0.26 -2.187,-0.54 -3.222,-0.82 -1.543,-0.4 -3.028,-0.81 -4.473,-1.22 -0.82,-0.23 -1.68,-0.46 -2.461,-0.7 -2.207,-0.66 -4.336,-1.32 -6.328,-2 63.555,7.88 124.824,1.99 177.793,-11.78 18.262,-2.81 52.344,-6.99 76.387,-16.4 43.457,-15.9 64.121,-42.46 74.277,-73.76 4.133,-2.75 8.152,-5.59 12.012,-8.57 6.289,-55.16 5.222,-116.46 28.125,-156.489 -13.614,-2.969 -4.434,-8.743 -19.61,-10.18 14.2,-8.852 9.414,-16.621 24.141,-24.93 -31.426,-13.07 -66.035,-23 -103.047,-30.562 4.258,-10.848 19.785,-20.239 30.586,-28.297 -37.598,-16 -73.008,-34.231 -122.324,-38.524 3.906,-8.179 16.758,-17.207 27.187,-22.648 -20.957,-5.379 -51.425,-13.16 -74.726,-5.668 -2.559,-12.941 -3.145,-27.82 -5.703,-40.762 -25.879,-0.629 -50.821,-0.261 -63.399,12.45 z M 487.441,985.039 c 14.297,-45.758 32.52,-87.539 57.754,-122.328 -14.824,-7.981 -40.937,-14.41 -61.152,-6.789 -16.289,35.699 -10.742,95.476 3.398,129.117 z m 157.481,6.41 c 10.605,50.311 6.094,108.301 25.527,137.501 13.75,20.63 78.184,41.99 97.774,11.21 13.965,-21.85 -8.34,-45.36 -21.211,-56 -11.914,-9.83 -32.403,-17.58 -36.035,-31.86 -2.696,-10.64 2.636,-22.75 2.753,-30.98 0.665,-42.629 -28.964,-71.73 -50.585,-89.621 -22.129,-18.258 -46.426,-30.75 -76.231,-35.988 24.16,20.398 47.871,47.758 58.008,95.738 z M 422.91,1074.49 c -32.558,4.85 -59.336,15.44 -75.898,36.23 15.234,8.22 27.383,19.45 44.199,26.08 6.621,-23.94 22.031,-45.16 31.699,-62.31 z m 282.344,657.01 c 52.031,16.76 85.469,52.21 112.109,94.44 11.778,-80.11 -48.066,-123.73 -112.109,-94.44 z M 2426.13,1405.19 c -12.03,36.29 -25.93,70.29 -44.94,104.19 -46.95,83.73 -96.25,163.07 -148.38,238.95 -10.11,14.76 -24.88,30.88 -32.85,45.31 -7.83,14.19 -10.68,34.41 -12.46,53.22 -1.91,20.39 0.53,43.32 -3.38,63.41 -4.65,23.93 -24.49,40.4 -38.49,58.9 -24.5,32.34 -48.42,68.13 -70.76,102.52 -3.85,13.37 0.95,59.33 0.74,71.44 -0.69,38.3 -17.95,72.08 -32.85,89.26 -12.79,14.77 -71.6,86.65 -133.38,110.54 -75.87,41.4 -201.68,98.33 -420.8,126.67 -78.24,17.03 -166.66,28.1 -262.52,26.38 -60.07,0.81 -117.09,-3.49 -170.58,-11 -249.14,-25.68 -379.085,-89.03 -461.3,-129.86 -44.805,-20.52 -132.305,-86.36 -146.367,-110.74 -14.942,-25.92 -32.168,-50.43 -32.852,-88.34 -0.215,-12.13 4.121,-25.4 2.266,-38.5 -1.075,-7.7 -14.688,-15.2 -21.524,-21.52 -56.777,-52.41 -91.953,-130.28 -82.656,-236.7 C 234.629,1757.75 119.668,1654.8 56.6211,1535.42 37.5,1499.2 9.66797,1448.32 0,1407.46 v -26.05 c 8.00781,-69.54 75.6836,-92.72 123.457,-132.51 35.273,-29.41 96.133,-62.32 119.375,-103.06 6.934,-12.15 16.211,-35.77 23.77,-40.78 15.39,-10.1 45.918,-3.36 63.437,-6.79 10.371,-2.04 13.984,-11.58 26.055,-19.25 9.531,-6.09 22.402,-11.62 31.699,-14.72 8.887,-3 70.918,-20.56 74.746,-4.55 2.266,9.5 -6.309,9.31 -13.594,14.74 -22.382,16.69 -30.351,48.62 -43.007,70.22 28.945,19.02 74.414,37.3 113.203,49.82 13.808,4.46 30.879,12.99 41.914,12.46 15.84,-0.77 34.902,-20.55 43.047,-29.46 -18.164,-44.01 -25,-115.5 -13.594,-172.12 -3.067,-6.5 -10.313,-10.59 -15.86,-15.859 -5.976,-5.672 -11.699,-11.762 -16.972,-18.11 -11.074,-13.32 -16.524,-29.921 -28.301,-41.91 -8.555,12.258 -13.379,27.27 -19.277,45.289 -3.535,10.86 -7.657,46.02 -18.125,47.57 -9.375,1.4 -14.746,-13.43 -18.106,-21.51 -12.129,-29.189 -20.351,-65.021 -16.972,-101.939 -34.258,6.188 -39.942,-23.82 -43.047,-49.839 -7.11,-58.954 -3.946,-125.473 19.238,-161.922 15.312,-24.09 41.934,-44.86 70.137,-59.059 10.898,-5.48 81.66,-17.723 118.632,-40.851 C 790.281,481.969 977.922,435.082 1156.04,423.988 v -1.109 c 268.69,-13.457 513.41,53.902 634.19,124.851 54.26,31.879 121.84,63.461 137.07,78.692 19.38,19.359 38.36,47.379 54.2,67.488 20.34,25.789 63.36,44.621 58.77,91.789 -2.09,21.531 -14.12,40.11 -22.65,58.891 18.94,31.121 10.82,91.422 -1.12,124.57 -3.77,10.57 -8.2,31.18 -19.25,30.602 -10.86,-0.602 -17.97,-40.563 -21.53,-50.992 -7.2,-21.231 -13.06,-35.551 -21.48,-52.09 -66.76,48.511 -106.78,129.45 -101.94,245.78 24.67,11.07 61.2,18.11 99.67,18.11 36.94,0 76.84,-1.59 96.25,-21.52 -11.27,-26.71 -25.27,-50.18 -46.44,-69.09 -6.43,-5.76 -20.49,-11.68 -17.01,-20.37 4.06,-9.92 25.7,-4.12 37.42,-2.29 42.13,6.67 76.77,17.64 103.04,36.26 66.02,-13.76 89.07,32.73 120.04,61.15 28.52,26.17 58.87,50.47 83.81,71.36 28.05,23.44 58.99,47.23 82.68,72.48 28.47,30.36 29.76,70.34 14.37,116.64" /><path
         id="path106"
         style="fill:#00adef;fill-opacity:1;fill-rule:nonzero;stroke:none"
         d="m 1692.32,1893.22 v 0 c 0.09,0.04 0.19,0.04 0.28,0.09 -0.08,-0.05 -0.18,-0.06 -0.28,-0.09" /><path
         id="path108"
         style="fill:#231f20;fill-opacity:1;fill-rule:evenodd;stroke:none"
         d="m 1541.46,402.199 c 0,-17.879 -10.82,-23.699 -29.98,-32.379 -19.16,-8.679 -124.47,-40.461 -281.21,-40.461 -156.72,0 -280.797,36.5 -294.391,40.461 -13.613,3.969 -29.981,14.5 -29.981,32.379 V 2514.59 c 0,17.87 11.172,24.5 29.981,32.36 18.828,7.88 143.961,40.47 288.071,40.47 144.12,0 271.58,-34.72 287.53,-40.47 15.98,-5.74 29.98,-14.49 29.98,-32.36 V 402.199" /><path
         id="path110"
         style="fill:#ffffff;fill-opacity:1;fill-rule:evenodd;stroke:none"
         d="m 1575.9,366.582 c 0,-18.461 -12.07,-24.461 -33.44,-33.422 -21.37,-8.949 -136.72,-41.769 -311.42,-41.769 -174.73,0 -310.981,37.691 -326.138,41.769 -15.195,4.11 -33.437,14.961 -33.437,33.422 V 2550.2 c 0,18.45 12.441,25.3 33.437,33.42 20.977,8.12 158.418,41.77 319.058,41.77 160.67,0 300.71,-35.83 318.5,-41.77 17.81,-5.94 33.44,-14.97 33.44,-33.42 V 366.582" /><path
         id="path112"
         style="fill:#88191e;fill-opacity:1;fill-rule:nonzero;stroke:none"
         d="m 908.496,2574.3 c -10.254,-3.91 -17.695,-7.51 -21.601,-11.03 v 0 c -3.79,-3.6 -5.235,-6.06 -5.43,-13.07 v 0 -2183.61 c 0.039,-5.75 2.578,-10.149 7.527,-14.488 v 0 c 4.875,-4.25 12.063,-7.563 18.508,-9.27 v 0 c 14.863,-4.012 150.18,-41.422 323.54,-41.422 v 0 c 173.18,-0.129 288.38,32.852 307.55,40.981 v 0 c 10.6,4.398 18.2,8.058 22.05,11.5 v 0 c 3.71,3.539 4.99,5.597 5.25,12.699 v 0 2183.61 c -0.15,6.3 -2.13,9.8 -6.58,13.84 v 0 c -4.46,3.91 -11.7,7.37 -20.03,10.1 v 0 c -16.25,5.49 -156.34,41.36 -315.32,41.25 v 0 c -0.35,0 -0.68,0 -1.03,0 v 0 c -158.48,0 -295.86,-33.75 -314.434,-41.09 z M 902.305,323.52 c -8.77,2.39 -18.301,6.55 -26.321,13.378 v 0 c -7.976,6.723 -14.578,16.993 -14.531,29.692 v 0 2183.61 c -0.203,11.44 4.582,21.64 12.258,28.1 v 0 c 7.559,6.56 16.848,10.45 27.566,14.65 v 0 c 23.352,8.89 160.323,42.3 322.683,42.45 v 0 c 162.33,-0.08 302.33,-35.91 321.65,-42.3 v 0 c 9.5,-3.18 18.96,-7.22 26.79,-13.92 v 0 c 7.81,-6.56 13.64,-16.83 13.49,-28.98 v 0 -2183.61 c 0.25,-11.352 -4.49,-21.508 -12.16,-27.82 v 0 c -7.53,-6.43 -16.65,-10.25 -27.41,-14.821 v 0 c -23.57,-9.758 -139.08,-42.449 -315.28,-42.551 v 0 c -176.1,0 -313.298,37.973 -328.735,42.122 v 0" /><path
         id="path114"
         style="fill:#88191e;fill-opacity:1;fill-rule:evenodd;stroke:none"
         d="m 1230.27,343.762 c -142.5,0 -258.043,30.468 -290.055,39.808 -2.305,0.672 -19.942,6.16 -19.942,18.629 V 2514.59 c 0,7.59 1.739,10.96 21.153,19.08 19.16,8.01 143.324,39.36 282.524,39.36 140.99,0 265.58,-33.46 282.65,-39.61 18.01,-6.49 20.49,-12.89 20.49,-18.83 V 402.199 c 0,-7.828 -1.86,-10.34 -21.56,-19.25 -17.13,-7.777 -120.04,-39.187 -275.26,-39.187 v 0" /><path
         id="path116"
         style="fill:#ffffff;fill-opacity:1;fill-rule:nonzero;stroke:none"
         d="m 1068.55,1863.32 v 565.36 h 114.05 v -471.92 h 201.89 v -93.44 h -315.94" /><path
         id="path118"
         style="fill:#ffffff;fill-opacity:1;fill-rule:nonzero;stroke:none"
         d="m 1380.55,1803.19 v -93.42 h -201.9 v -133.04 h 190 v -93.43 h -190 v -152.03 h 209.83 v -93.43 h -323.87 v 565.35 h 315.94" /><path
         id="path120"
         style="fill:#ffffff;fill-opacity:1;fill-rule:nonzero;stroke:none"
         d="m 1226.54,683.68 c 67.31,0 78.38,57.82 78.38,209.84 0,151.25 -11.07,209.85 -78.38,209.85 -67.3,0 -78.41,-58.6 -78.41,-209.85 0,-152.02 11.11,-209.84 78.41,-209.84 z m 0,503.6 c 171.02,0 192.41,-121.94 192.41,-293.76 0,-171.821 -21.39,-293.75 -192.41,-293.75 -171.03,0 -192.42,121.929 -192.42,293.75 0,171.82 21.39,293.76 192.42,293.76" /><path
         id="path122"
         style="fill:#ffffff;fill-opacity:1;fill-rule:evenodd;stroke:none"
         d="m 1188.98,495.781 c -3.41,-33.34 31.51,-49 54.01,-37.89 35.08,17.32 20.94,77.191 -23.15,70.168 -17.52,-2.797 -29.14,-15.539 -30.86,-32.278 z m 35.79,42.789 c 29.18,1.25 60.62,-27.82 45.6,-65.238 -8.3,-20.703 -29.88,-31.562 -51.93,-28.773 -30.06,3.82 -49.51,40.73 -34.4,69.461 6.43,12.152 20.73,23.71 40.73,24.55" /><path
         id="path124"
         style="fill:#88191e;fill-opacity:1;fill-rule:evenodd;stroke:none"
         d="m 1241.6,516.121 c -7.77,7.961 -22.89,6.168 -32.28,1.41 0,-17.312 0,-34.621 0,-51.922 3.51,0 7.01,0 10.52,0 0.84,7.11 -1.71,17.629 1.41,22.45 11.23,-1.629 11.41,-14.329 16.15,-22.45 3.99,0 7.93,0 11.92,0 -3.81,8.832 -8.05,17.223 -12.64,25.262 10.33,3.578 11.48,18.551 4.92,25.25 z m -21.76,11.938 c 44.09,7.023 58.23,-52.848 23.15,-70.168 -22.5,-11.11 -57.42,4.55 -54.01,37.89 1.72,16.739 13.34,29.481 30.86,32.278" /><path
         id="path126"
         style="fill:#ffffff;fill-opacity:1;fill-rule:evenodd;stroke:none"
         d="m 1231.78,511.211 c -3.11,0.629 -9.01,1.48 -11.94,0 0,-4.672 0,-9.352 0,-14.02 5.51,-0.14 11.04,-0.293 14.05,2.11 2.36,4.25 1.13,9.551 -2.11,11.91 z m 4.9,-20.34 c 4.59,-8.039 8.83,-16.43 12.64,-25.262 -3.99,0 -7.93,0 -11.92,0 -4.74,8.121 -4.92,20.821 -16.15,22.45 -3.12,-4.821 -0.57,-15.34 -1.41,-22.45 -3.51,0 -7.01,0 -10.52,0 0,17.301 0,34.61 0,51.922 9.39,4.758 24.51,6.551 32.28,-1.41 6.56,-6.699 5.41,-21.672 -4.92,-25.25" /></g></g></svg>