<svg xmlns="http://www.w3.org/2000/svg" version="1.0" width="1200.000000" height="1200.000000" preserveAspectRatio="xMidYMid meet"><rect id="backgroundrect" width="100%" height="100%" x="0" y="0" fill="none" stroke="none"/>


<g class="currentLayer" style=""><title>Layer 1</title><g transform="translate(0,1200) scale(0.10000000149011612,-0.10000000149011612) " fill="#00338d" stroke="none" id="svg_1" class="selected" fill-opacity="1">
<path d="M5550,12005 c-257,-22 -719,-88 -730,-105 c-3,-4 -23,-10 -45,-14 c-122,-21 -300,-73 -373,-107 c-65,-31 -88,-48 -110,-81 l-27,-41 l-5,-281 l-5,-280 l-35,-8 c-119,-30 -306,-82 -310,-88 c-3,-3 -76,-30 -163,-59 c-215,-70 -582,-219 -597,-241 c-3,-4 -77,-44 -165,-88 c-149,-76 -336,-188 -360,-216 c-5,-7 -39,-35 -75,-61 c-219,-163 -306,-257 -392,-421 c-82,-158 -102,-248 -93,-415 l8,-128 l-35,-33 c-19,-18 -60,-55 -91,-81 c-31,-27 -57,-54 -57,-61 c0,-7 -12,-23 -26,-37 c-14,-13 -56,-70 -93,-125 c-148,-224 -224,-510 -220,-830 l2,-140 l-38,-55 c-46,-65 -224,-279 -390,-468 c-66,-75 -124,-144 -130,-153 c-5,-9 -63,-77 -127,-151 c-65,-74 -118,-138 -118,-141 c0,-4 -36,-51 -79,-105 c-110,-135 -270,-379 -359,-546 c-109,-204 -226,-457 -262,-569 c-31,-94 -32,-105 -28,-220 c4,-116 6,-124 42,-201 c55,-114 182,-238 381,-372 c83,-56 164,-116 180,-133 c17,-17 107,-87 200,-155 c109,-80 205,-160 267,-223 c83,-86 102,-111 143,-198 c83,-174 100,-186 270,-189 c55,-1 112,-2 127,-3 c15,-1 49,-21 80,-48 c29,-25 71,-55 93,-66 c22,-11 42,-24 45,-29 c19,-29 259,-89 357,-89 c50,0 67,4 83,20 c31,31 26,43 -31,78 c-53,32 -104,103 -164,227 c-79,165 -85,143 52,213 c65,33 168,79 228,103 c61,24 112,46 115,49 c3,4 67,28 142,54 c121,41 142,46 174,37 c49,-14 102,-51 146,-105 l37,-44 l-20,-58 c-58,-163 -85,-497 -59,-716 l13,-107 l-79,-74 c-44,-41 -91,-97 -106,-125 c-43,-80 -98,-162 -108,-162 c-22,0 -69,130 -125,351 c-9,36 -27,78 -41,94 l-24,28 l-33,-34 c-68,-70 -132,-288 -143,-491 l-7,-118 l-37,0 c-50,0 -100,-35 -127,-90 c-37,-74 -48,-175 -48,-435 c0,-211 3,-252 23,-340 c28,-128 75,-221 155,-313 c123,-138 220,-196 422,-251 c164,-44 296,-87 304,-99 c4,-4 27,-17 53,-29 c26,-12 112,-60 192,-107 c80,-47 178,-102 218,-122 c40,-20 75,-40 78,-44 c17,-25 333,-164 560,-246 c74,-26 137,-51 140,-55 c3,-3 19,-10 35,-16 l30,-10 l5,-314 c5,-305 6,-315 27,-345 c63,-88 129,-117 404,-175 c85,-19 156,-36 159,-40 c14,-19 522,-88 795,-109 c179,-13 708,-13 890,0 c280,20 759,87 774,107 c3,5 62,22 131,39 c227,57 336,111 378,187 c15,28 18,72 22,317 l5,285 l115,33 c63,19 117,37 120,41 c3,4 25,13 50,21 c204,64 639,249 652,277 c4,12 111,73 332,192 c104,57 194,107 200,112 c6,5 53,35 104,67 c73,44 109,75 163,138 c38,45 69,84 69,88 c0,18 144,194 244,298 c63,64 126,138 140,162 c63,108 57,227 -20,388 l-48,98 l25,73 c21,62 24,90 24,207 c0,144 -15,235 -62,384 c-32,103 -56,138 -91,134 c-36,-4 -65,-59 -92,-172 c-18,-76 -93,-285 -120,-335 c-6,-11 -33,11 -107,85 c-127,127 -168,183 -242,335 c-102,210 -143,396 -145,653 l-1,170 l55,19 c266,92 759,82 871,-19 c26,-23 24,-34 -15,-113 c-47,-93 -143,-218 -216,-281 c-66,-57 -74,-81 -34,-107 c26,-16 33,-16 162,6 c190,32 402,96 402,122 c0,5 5,9 10,9 c6,0 28,11 50,25 c36,23 52,26 158,28 c104,2 123,5 172,29 c70,34 162,113 238,204 c33,39 111,115 173,169 c63,54 125,110 139,125 c14,14 93,82 175,150 c166,137 224,189 365,330 c84,84 99,104 125,170 c28,71 30,83 30,215 l-1,140 l-61,180 c-71,210 -152,391 -252,564 c-39,68 -71,126 -71,128 c0,3 -38,70 -85,149 c-47,79 -85,145 -85,148 c0,7 -153,255 -252,410 c-35,54 -87,137 -116,183 c-28,47 -85,128 -126,181 c-134,176 -154,239 -166,518 c-5,105 -12,208 -16,230 c-10,57 -39,110 -103,188 c-31,38 -63,79 -71,92 c-8,13 -59,84 -112,158 c-54,75 -98,138 -98,141 c0,2 -37,60 -81,127 l-82,123 l7,200 c7,218 2,270 -41,399 c-33,98 -80,175 -160,265 c-35,38 -63,74 -63,79 c0,12 -155,161 -240,231 c-36,29 -73,62 -82,72 c-28,29 -139,90 -353,196 c-110,54 -202,101 -205,105 c-24,32 -479,197 -725,263 c-55,15 -102,31 -105,35 c-5,7 -234,62 -372,90 l-58,11 l0,252 c0,147 -5,268 -11,290 c-15,54 -69,110 -138,141 c-51,23 -276,82 -386,102 c-22,4 -42,10 -45,14 c-13,20 -518,89 -795,110 c-190,14 -724,11 -915,-5 zm930,-106 c183,-13 474,-49 480,-58 c3,-5 30,-11 60,-15 c82,-11 351,-64 465,-92 c133,-33 180,-52 216,-85 l29,-27 l0,-5597 c0,-3847 -3,-5602 -10,-5616 c-16,-28 -115,-75 -232,-109 c-106,-30 -386,-90 -425,-90 c-12,0 -23,-4 -25,-9 c-4,-11 -289,-46 -498,-62 c-195,-15 -711,-15 -895,0 c-198,16 -499,52 -505,61 c-3,4 -27,10 -55,14 c-200,28 -582,114 -644,146 c-22,11 -47,30 -55,42 c-15,20 -16,556 -16,5623 l0,5602 l23,21 c28,26 94,54 188,81 c84,23 397,87 479,97 c30,4 57,10 60,14 c10,15 397,57 650,70 c176,10 510,4 710,-11 zm-3173,-1389 c-111,-84 -391,-356 -420,-407 c-7,-12 -28,-46 -48,-75 c-38,-57 -65,-115 -56,-124 c6,-6 200,120 230,150 c29,28 176,94 248,111 c68,16 149,20 149,8 c0,-5 -18,-17 -41,-27 c-22,-11 -50,-29 -62,-41 c-12,-11 -51,-44 -87,-72 c-92,-73 -187,-173 -265,-282 l-68,-94 l17,-66 c10,-36 20,-68 22,-70 c2,-2 17,7 33,20 c16,13 75,62 132,108 c57,46 109,90 114,97 c18,22 302,218 375,258 c8,5 -19,-22 -60,-60 c-188,-172 -341,-356 -375,-454 c-13,-37 -13,-42 3,-58 c9,-9 36,-23 59,-31 c38,-13 44,-12 77,8 c20,13 36,26 36,30 c0,23 376,191 426,191 c10,0 -11,-22 -47,-49 c-69,-53 -122,-111 -194,-215 c-52,-74 -52,-90 -4,-130 l30,-25 l47,18 c76,30 125,34 184,17 c169,-49 236,-330 115,-487 c-43,-57 -136,-114 -222,-136 c-39,-10 -71,-21 -73,-25 c-2,-5 -23,-8 -47,-8 l-42,0 l8,-45 c9,-47 51,-139 70,-150 c12,-8 89,-124 89,-135 c0,-12 -152,-77 -208,-89 c-82,-17 -199,-13 -288,9 c-76,19 -274,106 -274,120 c0,11 -187,95 -261,118 c-162,50 -357,50 -541,1 c-68,-19 -80,-25 -99,-56 c-50,-80 -74,-263 -48,-358 l11,-39 l-66,-62 c-46,-43 -74,-80 -96,-125 c-16,-35 -30,-69 -30,-74 c0,-22 -61,-168 -85,-202 c-13,-21 -48,-62 -77,-92 l-53,-54 l90,6 c246,18 477,123 636,290 c60,63 71,70 86,59 c62,-44 108,-57 203,-57 c110,1 171,21 272,88 c70,46 183,156 193,186 c6,20 6,20 27,-1 c30,-30 117,-67 200,-84 c141,-31 374,-2 499,61 c28,14 55,23 59,20 c5,-3 12,0 17,7 c11,18 103,91 103,83 c0,-34 -171,-209 -265,-271 c-30,-20 -55,-40 -55,-45 c0,-7 -158,-86 -307,-155 l-42,-19 l54,-84 c30,-46 55,-88 55,-92 c0,-12 -37,-11 -225,6 c-88,8 -172,15 -188,15 c-27,0 -27,0 -11,-25 c24,-37 161,-124 309,-197 c154,-75 140,-67 132,-74 c-7,-8 -210,16 -217,25 c-3,4 -45,15 -95,25 c-114,23 -328,85 -467,135 c-60,21 -108,34 -108,28 c0,-17 132,-140 205,-192 c39,-27 72,-53 73,-57 c9,-20 200,-123 382,-205 c24,-11 24,-12 -11,-12 c-165,-3 -482,43 -672,99 c-73,21 -134,36 -137,33 c-12,-12 148,-132 240,-178 c30,-15 57,-31 60,-36 c19,-29 320,-120 608,-184 c247,-54 282,-63 282,-74 c0,-29 -288,-48 -495,-32 c-199,15 -409,41 -413,52 c-2,5 -13,9 -24,9 c-20,0 -256,46 -290,56 c-71,21 65,-71 152,-103 c25,-9 47,-20 50,-24 c17,-24 263,-78 480,-105 c237,-30 836,-28 1020,3 c27,4 32,3 24,-6 c-20,-21 -185,-71 -324,-98 c-74,-15 -137,-29 -140,-33 c-3,-3 -63,-17 -135,-29 c-257,-46 -490,-93 -498,-100 c-5,-5 13,-12 40,-15 c188,-28 292,-111 293,-233 c0,-28 4,-54 9,-57 c10,-6 273,62 281,73 c3,4 34,18 70,30 c107,39 244,106 334,164 c67,44 83,51 78,35 c-10,-39 -164,-188 -240,-233 c-77,-45 -77,-55 -2,-55 c119,0 460,-134 460,-181 c0,-5 -50,-9 -114,-9 c-118,0 -284,-23 -301,-42 c-7,-8 -6,-9 3,-4 c6,4 12,3 12,-1 c0,-5 21,-16 48,-25 c121,-44 267,-159 311,-246 c12,-24 20,-46 18,-49 c-3,-2 -23,5 -44,15 c-21,11 -65,28 -98,37 c-33,10 -62,21 -65,26 c-12,18 -235,42 -339,36 c-111,-6 -148,-20 -84,-31 c91,-17 268,-59 273,-65 c3,-4 50,-27 105,-51 c175,-79 275,-155 275,-209 c0,-17 -2,-31 -4,-31 c-10,0 -82,45 -91,57 c-17,22 -237,121 -315,142 c-41,12 -97,21 -125,21 l-50,-1 l70,-36 c39,-20 86,-47 105,-62 c62,-46 140,-113 140,-121 c0,-9 -162,41 -171,53 c-3,4 -59,19 -125,33 c-146,31 -420,43 -585,25 c-141,-16 -329,-51 -329,-62 c0,-5 -13,-9 -29,-9 c-17,0 -32,-4 -35,-8 c-3,-4 30,-4 72,1 c157,18 641,-13 662,-42 c6,-9 123,-34 281,-61 c253,-43 412,-126 507,-267 c22,-31 22,-33 22,-652 l0,-620 l-50,-15 c-28,-8 -78,-20 -111,-27 c-33,-6 -62,-16 -65,-21 c-6,-9 73,-92 116,-121 c16,-11 21,-20 14,-27 c-18,-18 -302,-129 -384,-150 c-43,-11 -106,-23 -140,-27 c-38,-4 -60,-10 -60,-18 c0,-13 46,-57 90,-87 c35,-23 19,-34 -79,-52 c-94,-18 -171,-20 -217,-7 c-31,9 -32,8 -37,-28 c-3,-20 -9,-69 -13,-110 l-7,-74 l-101,7 c-56,4 -102,11 -104,17 c-2,5 -9,9 -15,9 c-7,0 -30,9 -51,21 c-48,25 -56,17 -56,-62 l0,-57 l-39,9 c-61,14 -151,50 -170,68 c-10,9 -28,25 -41,36 l-23,20 l6,-101 c4,-56 14,-138 23,-184 c14,-79 13,-115 -3,-73 c-5,10 -51,67 -103,126 c-52,59 -121,147 -153,195 l-59,87 l6,-80 c12,-150 64,-403 100,-490 c9,-21 14,-40 12,-42 c-7,-7 -86,97 -111,147 c-59,117 -101,286 -115,474 c-11,129 -8,165 8,140 c11,-17 70,-34 141,-40 c67,-6 209,16 220,35 c15,23 91,43 171,44 c74,2 94,6 152,35 c42,20 82,50 108,80 l41,46 l122,2 c157,2 278,37 350,102 c100,90 138,127 162,161 c20,29 37,42 68,50 c55,13 131,54 176,94 c139,123 201,217 201,304 c0,26 -11,122 -25,213 c-14,91 -30,197 -36,237 c-14,99 -58,229 -99,289 c-19,28 -83,101 -141,163 l-106,113 l-79,19 c-185,44 -350,62 -579,63 c-231,1 -330,-9 -520,-49 c-118,-25 -336,-91 -345,-104 c-3,-4 -43,-23 -90,-41 c-147,-59 -480,-239 -480,-259 c0,-5 -13,-14 -30,-21 c-24,-10 -43,-10 -95,0 c-36,7 -65,16 -65,21 c0,5 -19,9 -43,9 c-42,0 -43,1 -71,58 c-15,31 -53,95 -84,142 c-31,47 -62,96 -69,109 c-15,28 -74,98 -175,212 c-37,42 -68,79 -68,82 c0,3 17,11 38,17 c33,10 41,20 74,88 c53,109 72,140 115,185 c81,85 220,152 356,172 l48,7 l-7,92 c-10,142 17,333 63,439 c9,20 13,40 10,44 c-9,8 -88,-57 -162,-132 l-60,-62 l-80,-6 c-199,-17 -466,-74 -664,-141 c-113,-38 -261,-105 -261,-116 c0,-4 -13,-13 -30,-20 c-16,-7 -62,-34 -101,-61 c-81,-56 -85,-55 -117,20 c-55,126 -28,346 53,431 c13,14 53,86 88,160 c36,74 88,172 116,218 c28,46 51,86 51,88 c0,8 66,107 135,204 c34,47 64,92 67,100 c4,8 44,62 89,120 c45,58 103,132 128,165 c25,33 94,117 153,187 c59,70 108,130 108,134 c0,3 56,69 123,147 c68,78 126,147 128,152 c2,6 55,72 118,147 c62,75 119,145 125,156 c48,82 47,81 37,136 c-29,155 -22,330 19,504 c26,108 107,279 175,367 c65,85 178,194 262,253 l63,44 l-5,66 c-3,37 -10,120 -15,184 l-9,117 l50,87 c50,86 61,102 161,223 c29,35 67,82 84,105 c33,44 162,158 276,244 c38,29 76,59 85,67 c48,49 380,211 437,215 c5,0 -21,-22 -57,-50 zm5578,-176 c6,-6 51,-39 100,-72 c120,-81 219,-167 277,-238 c89,-110 164,-229 195,-309 c17,-44 43,-111 58,-149 c35,-91 78,-152 123,-175 c44,-23 136,-41 204,-41 c47,0 50,-1 65,-37 c38,-94 119,-253 153,-303 c21,-30 70,-88 109,-127 c39,-40 71,-79 71,-86 c0,-20 78,-177 106,-214 c13,-17 24,-36 24,-41 c0,-12 106,-121 152,-155 l35,-27 l7,-133 c15,-278 50,-471 106,-590 c11,-23 61,-96 111,-162 c50,-66 93,-127 96,-135 c4,-8 45,-73 93,-145 c47,-71 93,-143 102,-160 c8,-16 50,-87 94,-157 c88,-142 234,-389 249,-422 c5,-11 40,-75 78,-141 c38,-66 79,-140 91,-165 c12,-25 52,-99 88,-165 c109,-197 163,-360 156,-469 l-3,-49 l-60,51 c-33,29 -64,52 -68,52 c-5,0 -22,-13 -37,-30 c-15,-16 -33,-30 -40,-30 c-12,0 -122,74 -151,102 c-28,27 -178,95 -249,114 c-98,25 -224,23 -280,-6 c-45,-22 -163,-102 -189,-127 c-7,-8 -40,-32 -73,-55 c-62,-42 -64,-57 -8,-58 c45,-1 166,-37 233,-70 c83,-41 165,-123 211,-210 c50,-96 96,-249 96,-320 c0,-58 -1,-60 -46,-97 c-65,-53 -299,-288 -346,-347 c-93,-117 -180,-148 -314,-112 c-61,16 -174,66 -174,76 c0,5 -24,22 -54,39 c-52,29 -320,226 -366,269 c-67,62 -233,123 -430,158 c-163,29 -591,27 -752,-4 c-205,-39 -425,-121 -451,-168 c-6,-12 -29,-48 -50,-78 c-126,-184 -238,-542 -277,-884 c-11,-92 -10,-108 5,-148 c20,-52 108,-156 175,-207 c55,-41 257,-165 330,-202 c30,-15 61,-34 69,-43 c35,-34 383,-183 581,-247 c63,-21 117,-41 120,-45 c8,-13 230,-59 336,-70 c54,-6 136,-8 181,-4 l83,6 l32,-68 c18,-38 34,-90 36,-118 c5,-68 -18,-97 -116,-143 c-41,-19 -97,-55 -124,-81 c-46,-43 -258,-347 -258,-369 c0,-6 -20,-29 -45,-52 c-57,-53 -98,-55 -150,-10 c-47,41 -65,106 -65,228 c0,127 34,270 119,500 c18,46 30,85 28,87 c-2,2 -30,-5 -63,-16 c-89,-31 -320,-89 -394,-100 c-190,-27 -228,64 -104,246 c24,35 44,67 44,70 c0,13 -241,-35 -252,-50 c-3,-5 -60,-10 -125,-10 c-129,-1 -142,4 -163,59 c-13,34 -5,65 40,150 c46,88 55,112 38,98 c-29,-23 -223,-83 -286,-89 c-178,-17 -209,88 -78,260 c41,52 43,59 19,52 c-10,-2 -42,-8 -70,-11 l-53,-7 l0,567 l0,568 l40,73 c93,168 264,262 566,310 c60,10 111,21 114,24 c9,13 263,59 390,71 c123,11 437,7 473,-7 c9,-3 17,-2 17,4 c0,11 -1,11 -170,45 c-341,69 -665,61 -967,-24 c-43,-12 -80,-25 -83,-29 c-3,-4 -15,-10 -27,-14 c-79,-25 64,101 192,169 c39,20 72,39 75,42 c3,3 -27,3 -66,0 c-48,-4 -107,-19 -179,-46 c-101,-38 -259,-117 -287,-144 c-7,-7 -25,-20 -40,-30 c-27,-17 -28,-17 -28,0 c0,57 97,143 235,209 c50,24 95,47 101,52 c30,26 120,52 317,92 c31,6 55,15 52,20 c-9,15 -189,21 -285,10 c-99,-11 -250,-45 -260,-58 c-3,-4 -31,-19 -63,-35 l-59,-28 l8,23 c22,71 135,185 238,239 c33,18 63,35 66,39 c3,3 21,12 40,20 c48,18 54,25 23,28 c-15,1 -29,6 -32,11 c-10,15 -181,33 -278,29 c-50,-1 -89,0 -87,4 c8,13 128,77 200,106 c82,34 184,60 273,70 l65,7 l-63,38 c-77,48 -217,179 -241,228 l-19,35 l95,-62 c98,-64 278,-147 406,-185 c40,-12 75,-25 78,-29 c5,-7 168,-50 189,-50 c6,0 11,20 11,48 c1,125 88,202 266,236 c41,7 77,16 80,19 c4,4 -312,68 -461,93 c-22,4 -42,10 -45,13 c-3,4 -86,22 -185,40 c-226,42 -430,99 -413,116 c3,3 53,1 112,-4 c300,-29 730,-22 1000,15 c127,17 339,62 346,74 c3,4 23,13 45,20 c58,18 196,86 225,111 l25,21 l-30,-6 c-16,-3 -100,-19 -186,-35 c-86,-17 -186,-33 -223,-37 c-36,-4 -66,-10 -66,-14 c0,-25 -543,-41 -665,-20 c-33,5 -63,10 -67,10 c-5,0 -8,6 -8,14 c0,9 53,24 173,50 c330,72 620,151 650,180 c7,6 56,33 110,59 c99,50 192,113 237,163 c29,32 42,33 -135,-19 c-66,-19 -176,-44 -245,-56 c-123,-20 -418,-47 -440,-39 c-7,2 24,19 69,37 c87,36 288,145 305,165 c6,7 47,38 91,69 c81,57 213,182 204,192 c-3,2 -93,-24 -200,-59 c-214,-71 -374,-110 -521,-128 c-54,-7 -98,-16 -98,-20 c0,-4 -13,-8 -30,-8 c-16,0 -30,3 -30,8 c0,4 59,36 130,71 c154,75 238,127 296,185 l42,42 l-52,-7 c-91,-12 -396,-33 -401,-27 c-4,3 19,44 49,91 c31,47 56,87 56,90 c0,2 -30,17 -67,32 c-97,40 -225,105 -243,122 c-8,8 -44,33 -80,56 c-72,45 -238,205 -262,252 c-9,17 -36,65 -60,107 c-25,42 -54,105 -65,140 c-40,122 -41,116 13,71 c27,-23 65,-49 84,-58 c18,-10 40,-24 48,-31 c15,-16 98,-19 107,-5 c3,5 -2,65 -11,133 c-29,222 -7,461 55,593 c36,77 71,119 130,152 c25,15 48,28 51,30 c9,8 -73,74 -122,99 c-69,35 -181,62 -291,70 l-92,8 l45,14 c64,22 271,20 385,-2 c50,-9 130,-29 179,-42 c48,-14 90,-23 92,-21 c3,2 -15,31 -39,63 c-58,78 -187,197 -268,246 l-64,40 l70,-7 c190,-18 440,-105 521,-180 c26,-24 50,-34 42,-17 c-25,57 -99,181 -138,232 c-27,36 -71,94 -97,130 c-26,36 -71,94 -102,128 l-54,64 l84,-42 c135,-68 238,-141 326,-231 c90,-93 125,-135 153,-190 c19,-36 19,-36 72,-31 c29,2 58,7 65,11 c8,4 2,34 -22,101 c-60,175 -139,318 -250,455 c-25,30 -45,58 -45,63 c0,4 -57,63 -126,132 c-69,69 -139,144 -155,167 l-29,42 l78,-47 c42,-26 82,-52 87,-58 zm-6149,-2238 c17,-13 19,-27 19,-143 c0,-149 -10,-186 -65,-243 c-35,-36 -43,-40 -88,-40 c-73,0 -110,17 -172,79 c-63,64 -112,150 -145,257 l-23,75 l25,10 c13,5 30,9 38,9 c7,0 31,-45 54,-102 c42,-106 100,-194 160,-244 c32,-27 34,-27 47,-9 c10,13 14,52 14,137 c0,131 11,171 55,206 c32,26 54,28 81,8 zm5525,-412 c97,-109 176,-168 297,-220 c76,-33 78,-36 27,-48 c-16,-4 -33,-12 -36,-18 c-10,-15 -172,-15 -177,0 c-2,7 -10,12 -18,12 c-53,0 -171,96 -209,170 c-36,70 -53,169 -47,279 l2,34 l49,-69 c27,-38 77,-101 112,-140 zm-4211,124 c0,-87 -19,-177 -49,-237 c-30,-58 -111,-143 -149,-155 c-12,-4 -22,-11 -22,-16 c0,-15 -72,-30 -146,-30 c-69,0 -174,23 -174,38 c0,5 22,16 49,26 c138,49 294,179 417,346 c33,44 62,80 67,80 c4,0 7,-24 7,-52 zm4655,-3327 c69,-24 156,-81 180,-117 c41,-63 55,-166 64,-478 c8,-254 12,-313 30,-381 c28,-107 87,-226 151,-303 c28,-35 49,-66 47,-69 c-7,-6 -130,46 -142,60 c-5,7 -36,29 -68,51 c-96,65 -218,202 -265,298 c-65,132 -76,217 -46,338 c11,40 15,78 10,100 c-7,37 -61,101 -134,159 c-23,17 -59,59 -81,91 c-63,95 -66,173 -10,230 c17,16 45,34 62,40 c46,14 132,6 202,-19 zm-4968,-31 c78,-35 104,-120 63,-205 c-23,-48 -124,-150 -194,-198 c-76,-51 -92,-77 -87,-145 c3,-31 5,-96 5,-144 c0,-82 -2,-91 -43,-175 c-24,-48 -62,-109 -84,-136 c-54,-65 -188,-170 -267,-210 c-36,-17 -67,-35 -70,-38 c-8,-11 -110,-42 -117,-36 c-3,4 26,40 64,81 c74,80 116,149 157,263 c36,102 53,198 76,433 c28,272 57,377 122,436 c88,81 279,118 375,74 zm-1787,-90 c0,-25 43,-116 98,-208 c24,-40 41,-76 38,-79 c-7,-7 -119,16 -126,26 c-3,4 -31,18 -64,31 c-32,13 -80,44 -108,69 l-50,46 l71,45 c39,25 71,48 71,52 c0,7 49,37 63,38 c4,0 7,-9 7,-20 zm8442,-135 l62,-23 l-45,-29 c-25,-16 -66,-37 -90,-48 c-24,-11 -46,-22 -49,-25 c-11,-12 -64,-31 -143,-50 c-45,-12 -90,-23 -99,-26 c-28,-8 -22,6 32,81 c28,39 68,104 90,147 l40,76 l70,-40 c38,-22 98,-51 132,-63 zm-7929,-758 c48,-139 136,-331 193,-417 c42,-64 42,-65 21,-74 c-86,-34 -200,-46 -250,-27 c-51,19 -81,239 -58,416 c14,100 40,215 50,215 c3,0 23,-51 44,-113 zm7442,-112 c21,-106 16,-289 -9,-371 c-15,-49 -17,-51 -67,-62 c-28,-7 -64,-12 -80,-12 c-16,0 -29,-4 -29,-10 c0,-5 -16,-10 -35,-10 c-19,0 -35,5 -35,10 c0,6 -11,10 -25,10 c-32,0 -31,4 4,49 c75,96 164,270 210,416 c13,39 25,77 27,85 c9,25 19,-5 39,-105 zm-5698,-1347 c43,-10 59,-25 51,-48 c-4,-12 -93,31 -118,57 c-13,14 -13,15 4,9 c10,-3 39,-11 63,-18 zm3761,8 c-14,-14 -112,-66 -123,-66 c-4,0 -5,10 -3,22 c2,17 16,25 63,39 c75,22 80,22 63,5 zm-4055,-175 c52,-17 152,-42 221,-58 l126,-28 l0,-68 l0,-67 l-72,36 c-40,20 -76,41 -79,47 c-4,5 -76,45 -160,88 c-85,43 -149,78 -143,79 c6,0 54,-13 107,-29 zm4396,25 c-2,-2 -74,-39 -159,-81 c-85,-43 -157,-82 -158,-87 c-4,-8 -135,-78 -147,-78 c-3,0 -5,30 -3,66 l3,67 l140,33 c77,18 176,44 220,58 c73,23 115,32 104,22 zm-4945,-181 c66,-19 127,-35 137,-35 c9,0 19,-4 21,-9 c6,-17 414,-100 598,-121 c158,-18 140,3 140,-171 l0,-150 l-22,7 c-85,26 -418,181 -418,193 c0,5 -6,11 -13,13 c-26,6 -577,293 -577,301 c0,11 7,10 134,-28 zm5516,28 c0,-5 -133,-75 -295,-158 c-162,-82 -295,-153 -295,-156 c0,-13 -413,-199 -442,-199 c-4,0 -8,67 -8,149 l0,149 l28,6 c15,2 54,8 87,11 c156,16 624,108 635,125 c3,4 28,12 55,19 c28,6 86,22 130,35 c87,27 105,30 105,19 z" id="svg_2" fill="#00338d" fill-opacity="1"/>
<path d="M5760,11699 c-242,-15 -727,-79 -740,-99 c-3,-4 -23,-10 -45,-14 c-76,-14 -273,-66 -327,-87 c-29,-11 -63,-30 -75,-41 l-23,-21 l0,-5412 c0,-4887 2,-5413 16,-5433 c8,-12 28,-29 45,-37 c30,-16 380,-105 412,-105 c9,0 17,-4 17,-8 c0,-10 278,-56 465,-77 c471,-54 990,-39 1460,41 c83,15 152,29 155,33 c3,4 39,16 80,25 c172,41 291,87 330,126 c20,20 20,72 20,5430 l0,5411 l-23,23 c-37,37 -202,90 -397,127 c-36,7 -67,15 -70,19 c-7,10 -283,56 -450,74 c-302,34 -569,42 -850,25 zm82,-1931 l3,-1203 l498,-3 l497,-2 l0,-235 l0,-235 l-775,0 l-775,0 l0,1440 l0,1440 l275,0 l275,0 l2,-1202 zm978,-2228 l0,-240 l-500,0 l-500,0 l0,-340 l0,-340 l470,0 l470,0 l0,-235 l0,-235 l-467,-2 l-468,-3 l0,-385 l0,-385 l518,-3 l517,-2 l0,-235 l0,-235 l-795,0 l-795,0 l0,1440 l0,1440 l775,0 l775,0 l0,-240 zm-446,-2944 c139,-36 232,-85 321,-168 c41,-39 80,-80 87,-93 c7,-13 30,-53 51,-89 c110,-190 160,-465 173,-951 c7,-259 -7,-610 -31,-778 c-43,-309 -122,-504 -260,-643 c-62,-62 -99,-90 -164,-122 c-46,-23 -90,-42 -97,-42 c-8,0 -14,-4 -14,-9 c0,-15 -130,-42 -257,-54 c-92,-8 -154,-8 -245,1 c-116,10 -247,37 -258,51 c-3,4 -30,17 -60,30 c-156,67 -255,162 -339,326 c-80,159 -122,332 -147,615 c-21,232 -15,872 10,1060 c32,248 82,408 172,558 c66,108 143,184 242,235 c157,83 291,108 542,103 c148,-3 190,-8 274,-30 zm-221,-3289 c89,-38 136,-113 137,-215 c0,-72 -15,-114 -59,-164 c-64,-73 -199,-94 -284,-45 c-159,93 -156,336 5,416 c51,25 151,29 201,8 z" id="svg_3" fill="#00338d" fill-opacity="1"/>
<path d="M5932,4191 c-29,-10 -67,-31 -83,-47 c-39,-37 -93,-134 -113,-204 c-47,-157 -72,-565 -61,-975 c15,-589 71,-791 238,-866 c43,-20 69,-24 147,-24 c173,0 255,59 313,225 c38,107 55,213 68,422 c16,246 7,859 -15,1025 c-18,136 -54,262 -89,314 c-13,19 -26,42 -30,52 c-8,22 -90,74 -137,87 c-57,16 -179,11 -238,-9 z" id="svg_4" fill="#00338d" fill-opacity="1"/>
<path d="M5968,1260 c-130,-71 -128,-275 4,-339 c83,-40 190,-19 237,47 c59,84 39,227 -41,284 c-46,32 -148,36 -200,8 zm145,-31 c12,-7 25,-17 29,-23 c14,-21 8,-82 -10,-101 c-17,-18 -16,-21 10,-77 c16,-32 28,-60 28,-63 c0,-3 -13,-5 -29,-5 c-25,0 -31,5 -41,38 c-14,43 -37,72 -57,72 c-9,0 -13,-16 -13,-55 c0,-52 -1,-55 -25,-55 l-25,0 l0,134 c0,149 -4,143 73,145 c21,0 48,-4 60,-10 z" id="svg_5" fill="#00338d" fill-opacity="1"/>
<path d="M6030,1160 c0,-36 3,-40 24,-40 c22,0 56,22 56,36 c0,23 -25,44 -50,44 c-28,0 -30,-2 -30,-40 z" id="svg_6" fill="#00338d" fill-opacity="1"/>
<path d="M1423,7144 c-26,-37 -95,-124 -153,-195 c-164,-200 -350,-436 -350,-444 c0,-3 -19,-32 -43,-63 c-67,-87 -120,-169 -167,-257 c-24,-44 -51,-94 -61,-112 c-11,-19 -19,-45 -19,-60 l0,-26 l123,6 c136,7 261,33 337,72 c45,23 50,29 50,59 c0,43 24,173 56,301 c47,187 144,457 231,645 c38,81 59,140 49,140 c-3,0 -26,-30 -53,-66 z" id="svg_7" fill="#00338d" fill-opacity="1"/>
<path d="M2545,5725 c-5,-2 -44,-11 -85,-20 c-73,-17 -269,-89 -280,-103 c-3,-4 -41,-22 -85,-41 c-150,-63 -430,-216 -480,-262 c-11,-10 -69,-54 -130,-98 c-198,-143 -261,-212 -253,-277 c7,-66 92,-50 171,33 c45,48 191,162 297,233 c36,24 70,49 75,55 c19,23 186,117 358,202 c95,47 174,89 177,93 c3,4 41,24 85,45 c91,44 255,134 255,141 c0,5 -90,4 -105,-1 z" id="svg_8" fill="#00338d" fill-opacity="1"/>
<path d="M2585,5528 c-72,-13 -160,-41 -262,-83 c-116,-49 -274,-125 -293,-142 c-8,-8 -68,-45 -133,-83 c-127,-75 -270,-174 -321,-224 c-18,-17 -63,-58 -100,-90 c-98,-85 -121,-157 -56,-171 c42,-9 85,18 196,124 c143,136 240,207 429,316 c55,31 102,61 105,66 c3,4 109,61 235,125 c215,109 275,145 275,166 c0,9 -8,9 -75,-4 z" id="svg_9" fill="#00338d" fill-opacity="1"/>
<path d="M2445,5262 c-153,-53 -495,-224 -525,-261 c-3,-4 -61,-46 -130,-95 c-181,-128 -246,-184 -281,-238 c-34,-53 -34,-92 1,-103 c32,-10 80,20 170,108 c47,45 137,119 200,164 c63,45 122,88 130,95 c32,27 80,54 311,173 c130,68 247,133 258,144 c12,12 26,21 31,21 c6,0 10,5 10,10 c0,19 -96,9 -175,-18 z" id="svg_10" fill="#00338d" fill-opacity="1"/>
<path d="M9956,8370 c-75,-12 -249,-58 -256,-68 c-5,-8 -248,-101 -369,-142 c-304,-102 -614,-85 -758,41 c-71,62 -91,65 -62,7 c66,-131 194,-270 291,-319 c73,-37 169,-59 258,-59 c79,0 230,30 295,59 c26,12 52,21 58,21 c6,0 35,-23 64,-52 c29,-28 55,-50 58,-47 c2,3 0,21 -5,40 c-6,18 -10,86 -10,150 l0,117 l47,16 c70,24 81,21 92,-21 c7,-26 7,-59 -2,-112 c-15,-96 -15,-197 -1,-211 c9,-9 19,-8 41,3 c54,28 118,110 178,228 l59,117 l31,-11 c16,-5 33,-13 37,-16 c12,-10 -31,-149 -65,-214 c-60,-114 -141,-172 -259,-184 c-34,-3 -65,-9 -68,-13 c-3,-4 -40,-23 -82,-43 c-84,-41 -118,-75 -118,-119 c0,-65 120,-73 299,-22 c84,25 256,104 276,128 c5,7 26,22 47,33 l36,21 l25,-26 c40,-43 111,-153 141,-218 l28,-60 l84,-24 c46,-13 84,-27 84,-32 c0,-4 5,-8 11,-8 c23,0 130,-61 192,-108 c34,-26 75,-53 90,-60 c31,-13 106,-16 123,-4 c7,4 -14,42 -61,108 c-79,111 -101,149 -175,299 c-65,131 -107,269 -131,435 c-27,187 -41,229 -100,289 c-35,36 -63,55 -101,66 c-63,20 -240,28 -322,15 z" id="svg_11" fill="#00338d" fill-opacity="1"/>
<path d="M10966,6962 c-17,-51 -83,-67 -198,-47 c-45,8 -84,12 -86,10 c-2,-2 36,-46 85,-98 c105,-114 196,-169 282,-170 c73,-1 84,13 70,88 c-12,69 -39,120 -102,190 c-42,47 -45,48 -51,27 z" id="svg_12" fill="#00338d" fill-opacity="1"/>
<path d="M10967,6504 c125,-145 168,-185 228,-215 c35,-17 80,-31 105,-32 c44,-2 45,-1 54,35 c10,41 -9,104 -44,147 c-20,23 -21,23 -61,7 c-27,-11 -53,-15 -73,-10 c-33,7 -127,51 -136,63 c-8,12 -96,61 -109,61 c-7,0 9,-25 36,-56 z" id="svg_13" fill="#00338d" fill-opacity="1"/>
<path d="M11190,6140 c29,-41 118,-117 160,-137 c49,-23 89,-21 112,6 c30,38 23,51 -27,51 c-52,0 -109,21 -180,65 c-27,17 -58,35 -68,38 c-16,6 -16,4 3,-23 z" id="svg_14" fill="#00338d" fill-opacity="1"/>
<path d="M9435,5939 c-11,-16 20,-43 78,-70 c28,-13 54,-27 57,-30 c3,-4 34,-21 70,-39 c136,-68 363,-218 410,-271 c8,-9 69,-62 136,-117 c66,-56 142,-121 167,-145 c25,-25 62,-57 82,-73 c34,-26 72,-81 62,-90 c-2,-3 -25,10 -51,28 c-25,18 -88,62 -139,97 c-50,36 -94,68 -97,72 c-22,31 -394,223 -515,265 c-44,15 -83,32 -86,36 c-16,24 -321,88 -420,88 c-42,0 -63,-5 -80,-20 c-18,-15 -21,-22 -11,-28 c7,-5 81,-28 165,-52 c83,-24 154,-47 157,-51 c3,-3 59,-27 125,-54 c136,-53 451,-208 489,-239 c14,-12 101,-68 194,-125 c147,-90 203,-133 190,-147 c-5,-5 -82,18 -88,27 c-3,3 -63,24 -135,47 c-71,22 -229,71 -350,110 c-121,38 -278,84 -350,103 c-71,18 -132,36 -135,40 c-7,9 -279,58 -366,66 c-69,6 -144,-8 -144,-27 c0,-16 86,-49 155,-60 c136,-20 195,-32 195,-41 c0,-5 8,-9 18,-9 c28,0 246,-57 387,-101 c163,-52 518,-179 525,-189 c11,-17 458,-183 502,-188 c60,-6 123,25 184,90 c75,80 76,78 -154,306 c-204,204 -294,287 -422,388 c-41,32 -82,66 -91,75 c-40,39 -257,176 -389,244 c-41,22 -76,43 -78,47 c-2,4 -33,17 -69,28 c-70,21 -168,27 -178,9 z" id="svg_15" fill="#00338d" fill-opacity="1"/>
</g></g></svg>